<svg width="16" height="13" viewBox="0 0 16 13" fill="none" xmlns="http://www.w3.org/2000/svg">
<path fill-rule="evenodd" clip-rule="evenodd" d="M8.26516 12.7325C8.18038 12.6479 8.1131 12.5475 8.06721 12.4369C8.02131 12.3262 7.99768 12.2077 7.99768 12.0879C7.99768 11.9681 8.02131 11.8496 8.06721 11.739C8.1131 11.6283 8.18038 11.5279 8.26516 11.4433L13.0852 6.62511L8.26516 1.80692C8.18051 1.72227 8.11336 1.62177 8.06755 1.51117C8.02174 1.40057 7.99816 1.28202 7.99816 1.16231C7.99816 1.04259 8.02174 0.924049 8.06755 0.813446C8.11336 0.702844 8.18051 0.602348 8.26516 0.517697C8.34982 0.433045 8.45031 0.365896 8.56091 0.320083C8.67152 0.274269 8.79006 0.250691 8.90978 0.250691C9.02949 0.250691 9.14803 0.27427 9.25864 0.320083C9.36924 0.365896 9.46973 0.433045 9.55439 0.517697L15.0172 5.9805C15.102 6.06507 15.1692 6.16554 15.2151 6.27616C15.261 6.38677 15.2847 6.50535 15.2847 6.62511C15.2847 6.74486 15.261 6.86345 15.2151 6.97406C15.1692 7.08467 15.102 7.18514 15.0172 7.26972L9.55439 12.7325C9.46981 12.8173 9.36934 12.8846 9.25873 12.9305C9.14811 12.9764 9.02953 13 8.90977 13C8.79002 13 8.67144 12.9764 8.56082 12.9305C8.45021 12.8846 8.34974 12.8173 8.26516 12.7325Z" fill="white"/>
<path fill-rule="evenodd" clip-rule="evenodd" d="M14.3726 6.62518C14.3726 6.86665 14.2766 7.09823 14.1059 7.26897C13.9351 7.43972 13.7036 7.53564 13.4621 7.53564L1.62603 7.53564C1.38456 7.53564 1.15298 7.43972 0.982229 7.26897C0.811483 7.09823 0.71556 6.86665 0.71556 6.62518C0.71556 6.38371 0.811484 6.15212 0.982229 5.98138C1.15298 5.81063 1.38456 5.71471 1.62603 5.71471L13.4621 5.71471C13.7036 5.71471 13.9351 5.81063 14.1059 5.98138C14.2766 6.15213 14.3726 6.38371 14.3726 6.62518Z" fill="white"/>
</svg>
