<svg width="94" height="191" viewBox="0 0 94 191" fill="none" xmlns="http://www.w3.org/2000/svg">
<path d="M57.5 0C60.5399 0 62.5699 16.7502 62.5699 16.7502C62.5699 16.7502 78.3055 14.4538 78.9765 16.7502C79.6475 19.0466 65.7033 27.1024 65.7033 27.1024C65.7033 27.1024 72.4626 42.8549 70.7732 43.8527C69.0839 44.8504 57.5 33.5005 57.5 33.5005C57.5 33.5005 46.6433 45.4522 44.2267 43.8527C41.8102 42.2532 49.2967 27.1024 49.2967 27.1024C49.2967 27.1024 35.3525 19.4795 36.0234 16.7502C36.6943 14.021 52.4301 16.7502 52.4301 16.7502C52.4301 16.7502 54.4601 0 57.5 0Z" fill="#DEFE1B"/>
<path d="M-49 188.813C33.6548 137.109 102.31 102.397 67.8294 87.8792C52.729 81.5211 34.4491 79.8863 6.63255 75.1178C49.5495 57.6331 140.947 36.1747 59.0866 25.0706" stroke="black" stroke-width="3" stroke-linecap="round" stroke-linejoin="round"/>
</svg>
