<svg width="23" height="24" viewBox="0 0 23 24" fill="none" xmlns="http://www.w3.org/2000/svg">
<g clip-path="url(#clip0)">
<path fill-rule="evenodd" clip-rule="evenodd" d="M4.59623 10.9394C4.50246 11.0332 4.44978 11.1604 4.44978 11.293C4.44978 11.4256 4.50246 11.5528 4.59623 11.6465L8.13176 15.1821C8.22553 15.2758 8.35271 15.3285 8.48532 15.3285C8.61793 15.3285 8.7451 15.2758 8.83887 15.1821C8.93264 15.0883 8.98532 14.9611 8.98532 14.8285C8.98532 14.6959 8.93264 14.5687 8.83887 14.4749L5.65689 11.293L8.83887 8.11099C8.93264 8.01722 8.98532 7.89004 8.98532 7.75743C8.98532 7.62483 8.93264 7.49765 8.83887 7.40388C8.7451 7.31011 8.61793 7.25743 8.48532 7.25743C8.35271 7.25743 8.22553 7.31011 8.13176 7.40388L4.59623 10.9394Z" fill="black"/>
<path d="M4.94895 11.2923L4.94895 11.2936L4.94958 11.2936L11.6123 11.2936L17.6775 11.2936L17.678 11.2934L17.6781 11.293L17.678 11.2925L17.6775 11.2923L4.94958 11.2923L4.94895 11.2923Z" fill="black" stroke="black"/>
</g>
<defs>
<clipPath id="clip0">
<rect width="16" height="16" fill="white" transform="matrix(0.707107 0.707107 0.707107 -0.707107 0 12)"/>
</clipPath>
</defs>
</svg>
