<svg width="23" height="24" viewBox="0 0 23 24" fill="none" xmlns="http://www.w3.org/2000/svg">
<g clip-path="url(#clip0)">
<path fill-rule="evenodd" clip-rule="evenodd" d="M18.4038 10.9394C18.4975 11.0332 18.5502 11.1604 18.5502 11.293C18.5502 11.4256 18.4975 11.5528 18.4038 11.6465L14.8682 15.1821C14.7745 15.2758 14.6473 15.3285 14.5147 15.3285C14.3821 15.3285 14.2549 15.2758 14.1611 15.1821C14.0674 15.0883 14.0147 14.9611 14.0147 14.8285C14.0147 14.6959 14.0674 14.5687 14.1611 14.4749L17.3431 11.293L14.1611 8.11099C14.0674 8.01722 14.0147 7.89004 14.0147 7.75743C14.0147 7.62483 14.0674 7.49765 14.1611 7.40388C14.2549 7.31011 14.3821 7.25743 14.5147 7.25743C14.6473 7.25743 14.7745 7.31011 14.8682 7.40388L18.4038 10.9394Z" fill="black"/>
<path d="M18.051 11.2923L18.0511 11.2936L18.0504 11.2936L11.3877 11.2936L5.3225 11.2936L5.32205 11.2934L5.32186 11.293L5.32205 11.2925L5.3225 11.2923L18.0504 11.2923L18.051 11.2923Z" fill="black" stroke="black"/>
</g>
<defs>
<clipPath id="clip0">
<rect width="16" height="16" fill="white" transform="translate(23 12) rotate(135)"/>
</clipPath>
</defs>
</svg>
