<svg width="13" height="174" viewBox="0 0 13 174" fill="none" xmlns="http://www.w3.org/2000/svg">
<path d="M6.5 160.912C7.78558 160.912 9.04229 161.296 10.1112 162.015C11.1801 162.734 12.0132 163.756 12.5052 164.952C12.9972 166.148 13.1259 167.463 12.8751 168.733C12.6243 170.002 12.0052 171.168 11.0962 172.083C10.1872 172.999 9.02896 173.622 7.76809 173.874C6.50721 174.127 5.20028 173.997 4.01256 173.502C2.82484 173.007 1.80968 172.168 1.09545 171.092C0.381218 170.016 0 168.75 0 167.456C0 165.721 0.684819 164.056 1.90381 162.829C3.12279 161.602 4.77609 160.912 6.5 160.912V160.912Z" fill="#C0C0C0"/>
<path d="M6.4563 120C10.022 120 12.9126 117.09 12.9126 113.5C12.9126 109.91 10.022 107 6.4563 107C2.89058 107 0 109.91 0 113.5C0 117.09 2.89058 120 6.4563 120Z" fill="black"/>
<path d="M6.4563 66C10.022 66 12.9126 63.0899 12.9126 59.5C12.9126 55.9101 10.022 53 6.4563 53C2.89058 53 0 55.9101 0 59.5C0 63.0899 2.89058 66 6.4563 66Z" fill="#707070" fill-opacity="0.39"/>
<path d="M6.4563 13C10.022 13 12.9126 10.0899 12.9126 6.5C12.9126 2.91015 10.022 0 6.4563 0C2.89058 0 0 2.91015 0 6.5C0 10.0899 2.89058 13 6.4563 13Z" fill="#707070" fill-opacity="0.39"/>
</svg>
